<svg width="26" height="27" viewBox="0 0 26 27" fill="none" xmlns="http://www.w3.org/2000/svg">
<path d="M8.99469 18.9842C6.74561 15.1554 6.74029 11.175 6.96892 9.32288C1.6998 11.8303 -1.45317 17.2134 0.668305 22.0386C3.16728 22.2877 6.67117 21.5296 8.99469 18.9842Z" fill="#415167"/>
<path d="M9.57423 19.9103C7.52188 22.0873 3.99672 23.3167 1.30634 23.1542C3.76278 26.7014 10.2973 28.2611 16.1832 24.8384C13.663 24.2265 11.2863 22.4393 9.57423 19.9103Z" fill="#415167"/>
<path d="M15.7313 11.9603C12.2114 8.06111 11.919 4.34061 12.4029 1.89819C8.76604 3.98319 6.99017 9.32835 8.41512 14.7764C10.0049 21.0043 15.6568 25.7159 20.9579 23.3438C21.1227 21.5946 20.9047 17.6683 15.7313 11.9603Z" fill="#415167"/>
<path d="M25.5252 10.1894C23.9088 3.98314 18.5121 -0.305992 13.5992 1.35117C12.8814 3.68528 12.9824 7.43827 16.5342 11.2617C18.1452 13.1571 22.1276 17.6466 22.0532 22.7318C25.3178 20.4356 26.8438 15.3667 25.5252 10.1894Z" fill="#415167"/>
</svg>
